<svg width="18" height="18" viewBox="0 0 18 18" fill="none" xmlns="http://www.w3.org/2000/svg">
<path d="M13.166 2.50001H16.4993C16.7204 2.50001 16.9323 2.58781 17.0886 2.74409C17.2449 2.90037 17.3327 3.11233 17.3327 3.33334V16.6667C17.3327 16.8877 17.2449 17.0997 17.0886 17.2559C16.9323 17.4122 16.7204 17.5 16.4993 17.5H1.49935C1.27834 17.5 1.06637 17.4122 0.910093 17.2559C0.753813 17.0997 0.666016 16.8877 0.666016 16.6667V3.33334C0.666016 3.11233 0.753813 2.90037 0.910093 2.74409C1.06637 2.58781 1.27834 2.50001 1.49935 2.50001H4.83268V0.833344H6.49935V2.50001H11.4993V0.833344H13.166V2.50001ZM11.4993 4.16668H6.49935V5.83334H4.83268V4.16668H2.33268V7.50001H15.666V4.16668H13.166V5.83334H11.4993V4.16668ZM15.666 9.16668H2.33268V15.8333H15.666V9.16668Z" fill="#253E5F"/>
</svg>
